<svg width="66" height="66" viewBox="0 0 66 66" fill="none" xmlns="http://www.w3.org/2000/svg">
<rect width="66" height="66" rx="33" fill="url(#paint0_linear_470_2238)"/>
<rect x="2" y="2" width="62" height="62" rx="31" stroke="white" stroke-opacity="0.24" stroke-width="4"/>
<path fill-rule="evenodd" clip-rule="evenodd" d="M29.1394 21.8571C29.6037 21.8571 29.9806 22.2366 29.9806 22.7052C29.9806 23.1726 29.6048 23.5521 29.1394 23.5521L27.3386 23.5532C25.8441 23.5554 24.6281 24.7807 24.6281 26.2865V28.3966C24.6281 28.864 24.25 29.2446 23.7857 29.2446C23.3214 29.2446 22.9445 28.864 22.9445 28.3966V26.2865C22.9445 23.847 24.9155 21.8605 27.3375 21.8583L29.1383 21.8571H29.1394ZM37.0686 21.8574H38.8295C41.2582 21.8574 43.2325 23.8451 43.2325 26.2901V28.3969C43.2325 28.8643 42.8567 29.2449 42.3913 29.2449C41.927 29.2449 41.55 28.8643 41.55 28.3969V26.2901C41.55 24.7799 40.3296 23.5513 38.8295 23.5513H37.0686C36.6043 23.5513 36.2273 23.1729 36.2273 22.7055C36.2273 22.2369 36.6043 21.8574 37.0686 21.8574ZM36.1422 26.1048H30.0357C28.6384 26.1193 27.5153 27.2689 27.5275 28.6767V30.0901C27.5308 30.2548 27.6623 30.3895 27.8259 30.3951H38.3497C38.5144 30.3906 38.646 30.2559 38.6515 30.0901V28.6767C38.6526 27.9967 38.3917 27.3435 37.9208 26.8571C37.4532 26.3752 36.811 26.1048 36.1422 26.1048ZM21.771 32.1182H44.4071C44.8714 32.1182 45.2484 32.4977 45.2484 32.9663C45.2484 33.4337 44.8714 33.8121 44.4071 33.8121H43.2332V37.8519C43.2332 40.2981 41.2577 42.2857 38.8302 42.2857H37.0692C36.6038 42.2857 36.2269 41.9062 36.2269 41.4377C36.2269 40.9703 36.6038 40.5908 37.0692 40.5908H38.8302C40.3303 40.5908 41.5507 39.3632 41.5507 37.8519V33.8121H38.6511V34.9372C38.6622 36.345 37.5401 37.4958 36.1418 37.5091H30.0353C28.638 37.4958 27.516 36.345 27.527 34.9372V33.8121H24.6275V37.8564C24.6275 39.3621 25.8446 40.5874 27.3402 40.5897L29.1399 40.5908C29.6042 40.5908 29.9811 40.9703 29.9811 41.4377C29.98 41.9062 29.6042 42.2857 29.1388 42.2857L27.338 42.2846C24.916 42.2824 22.9439 40.2958 22.9439 37.8564V33.8121H21.771C21.3067 33.8121 20.9286 33.4337 20.9286 32.9663C20.9286 32.4977 21.3067 32.1182 21.771 32.1182Z" fill="white"/>
<defs>
<linearGradient id="paint0_linear_470_2238" x1="33" y1="9.83477e-07" x2="66" y2="66" gradientUnits="userSpaceOnUse">
<stop stop-color="#28AF6E"/>
<stop offset="1" stop-color="#2CCC80"/>
</linearGradient>
</defs>
</svg>
